<?xml version="1.0" encoding="utf-8" standalone="no"?>
<!DOCTYPE svg PUBLIC "-//W3C//DTD SVG 1.1//EN"
  "http://www.w3.org/Graphics/SVG/1.1/DTD/svg11.dtd">
<!-- Created with matplotlib (http://matplotlib.org/) -->
<svg height="288pt" version="1.1" viewBox="0 0 432 288" width="432pt" xmlns="http://www.w3.org/2000/svg" xmlns:xlink="http://www.w3.org/1999/xlink">
 <defs>
  <style type="text/css">
*{stroke-linecap:butt;stroke-linejoin:round;}
  </style>
 </defs>
 <g id="figure_1">
  <g id="patch_1">
   <path d="M 0 288 
L 432 288 
L 432 0 
L 0 0 
z
" style="fill:#ffffff;"/>
  </g>
  <g id="axes_1">
   <g id="patch_2">
    <path d="M 54 252 
L 388.8 252 
L 388.8 34.56 
L 54 34.56 
z
" style="fill:#ffffff;"/>
   </g>
   <g id="matplotlib.axis_1">
    <g id="xtick_1">
     <g id="line2d_1">
      <defs>
       <path d="M 0 0 
L 0 3.5 
" id="m42570b5050" style="stroke:#000000;stroke-width:0.8;"/>
      </defs>
      <g>
       <use style="stroke:#000000;stroke-width:0.8;" x="69.218182" xlink:href="#m42570b5050" y="252"/>
      </g>
     </g>
     <g id="text_1">
      <!-- 0 -->
      <defs>
       <path d="M 31.78125 66.40625 
Q 24.171875 66.40625 20.328125 58.90625 
Q 16.5 51.421875 16.5 36.375 
Q 16.5 21.390625 20.328125 13.890625 
Q 24.171875 6.390625 31.78125 6.390625 
Q 39.453125 6.390625 43.28125 13.890625 
Q 47.125 21.390625 47.125 36.375 
Q 47.125 51.421875 43.28125 58.90625 
Q 39.453125 66.40625 31.78125 66.40625 
z
M 31.78125 74.21875 
Q 44.046875 74.21875 50.515625 64.515625 
Q 56.984375 54.828125 56.984375 36.375 
Q 56.984375 17.96875 50.515625 8.265625 
Q 44.046875 -1.421875 31.78125 -1.421875 
Q 19.53125 -1.421875 13.0625 8.265625 
Q 6.59375 17.96875 6.59375 36.375 
Q 6.59375 54.828125 13.0625 64.515625 
Q 19.53125 74.21875 31.78125 74.21875 
z
" id="DejaVuSans-30"/>
      </defs>
      <g transform="translate(66.036932 266.598437)scale(0.1 -0.1)">
       <use xlink:href="#DejaVuSans-30"/>
      </g>
     </g>
    </g>
    <g id="xtick_2">
     <g id="line2d_2">
      <g>
       <use style="stroke:#000000;stroke-width:0.8;" x="108.239161" xlink:href="#m42570b5050" y="252"/>
      </g>
     </g>
     <g id="text_2">
      <!-- 5 -->
      <defs>
       <path d="M 10.796875 72.90625 
L 49.515625 72.90625 
L 49.515625 64.59375 
L 19.828125 64.59375 
L 19.828125 46.734375 
Q 21.96875 47.46875 24.109375 47.828125 
Q 26.265625 48.1875 28.421875 48.1875 
Q 40.625 48.1875 47.75 41.5 
Q 54.890625 34.8125 54.890625 23.390625 
Q 54.890625 11.625 47.5625 5.09375 
Q 40.234375 -1.421875 26.90625 -1.421875 
Q 22.3125 -1.421875 17.546875 -0.640625 
Q 12.796875 0.140625 7.71875 1.703125 
L 7.71875 11.625 
Q 12.109375 9.234375 16.796875 8.0625 
Q 21.484375 6.890625 26.703125 6.890625 
Q 35.15625 6.890625 40.078125 11.328125 
Q 45.015625 15.765625 45.015625 23.390625 
Q 45.015625 31 40.078125 35.4375 
Q 35.15625 39.890625 26.703125 39.890625 
Q 22.75 39.890625 18.8125 39.015625 
Q 14.890625 38.140625 10.796875 36.28125 
z
" id="DejaVuSans-35"/>
      </defs>
      <g transform="translate(105.057911 266.598437)scale(0.1 -0.1)">
       <use xlink:href="#DejaVuSans-35"/>
      </g>
     </g>
    </g>
    <g id="xtick_3">
     <g id="line2d_3">
      <g>
       <use style="stroke:#000000;stroke-width:0.8;" x="147.26014" xlink:href="#m42570b5050" y="252"/>
      </g>
     </g>
     <g id="text_3">
      <!-- 10 -->
      <defs>
       <path d="M 12.40625 8.296875 
L 28.515625 8.296875 
L 28.515625 63.921875 
L 10.984375 60.40625 
L 10.984375 69.390625 
L 28.421875 72.90625 
L 38.28125 72.90625 
L 38.28125 8.296875 
L 54.390625 8.296875 
L 54.390625 0 
L 12.40625 0 
z
" id="DejaVuSans-31"/>
      </defs>
      <g transform="translate(140.89764 266.598437)scale(0.1 -0.1)">
       <use xlink:href="#DejaVuSans-31"/>
       <use x="63.623047" xlink:href="#DejaVuSans-30"/>
      </g>
     </g>
    </g>
    <g id="xtick_4">
     <g id="line2d_4">
      <g>
       <use style="stroke:#000000;stroke-width:0.8;" x="186.281119" xlink:href="#m42570b5050" y="252"/>
      </g>
     </g>
     <g id="text_4">
      <!-- 15 -->
      <g transform="translate(179.918619 266.598437)scale(0.1 -0.1)">
       <use xlink:href="#DejaVuSans-31"/>
       <use x="63.623047" xlink:href="#DejaVuSans-35"/>
      </g>
     </g>
    </g>
    <g id="xtick_5">
     <g id="line2d_5">
      <g>
       <use style="stroke:#000000;stroke-width:0.8;" x="225.302098" xlink:href="#m42570b5050" y="252"/>
      </g>
     </g>
     <g id="text_5">
      <!-- 20 -->
      <defs>
       <path d="M 19.1875 8.296875 
L 53.609375 8.296875 
L 53.609375 0 
L 7.328125 0 
L 7.328125 8.296875 
Q 12.9375 14.109375 22.625 23.890625 
Q 32.328125 33.6875 34.8125 36.53125 
Q 39.546875 41.84375 41.421875 45.53125 
Q 43.3125 49.21875 43.3125 52.78125 
Q 43.3125 58.59375 39.234375 62.25 
Q 35.15625 65.921875 28.609375 65.921875 
Q 23.96875 65.921875 18.8125 64.3125 
Q 13.671875 62.703125 7.8125 59.421875 
L 7.8125 69.390625 
Q 13.765625 71.78125 18.9375 73 
Q 24.125 74.21875 28.421875 74.21875 
Q 39.75 74.21875 46.484375 68.546875 
Q 53.21875 62.890625 53.21875 53.421875 
Q 53.21875 48.921875 51.53125 44.890625 
Q 49.859375 40.875 45.40625 35.40625 
Q 44.1875 33.984375 37.640625 27.21875 
Q 31.109375 20.453125 19.1875 8.296875 
z
" id="DejaVuSans-32"/>
      </defs>
      <g transform="translate(218.939598 266.598437)scale(0.1 -0.1)">
       <use xlink:href="#DejaVuSans-32"/>
       <use x="63.623047" xlink:href="#DejaVuSans-30"/>
      </g>
     </g>
    </g>
    <g id="xtick_6">
     <g id="line2d_6">
      <g>
       <use style="stroke:#000000;stroke-width:0.8;" x="264.323077" xlink:href="#m42570b5050" y="252"/>
      </g>
     </g>
     <g id="text_6">
      <!-- 25 -->
      <g transform="translate(257.960577 266.598437)scale(0.1 -0.1)">
       <use xlink:href="#DejaVuSans-32"/>
       <use x="63.623047" xlink:href="#DejaVuSans-35"/>
      </g>
     </g>
    </g>
    <g id="xtick_7">
     <g id="line2d_7">
      <g>
       <use style="stroke:#000000;stroke-width:0.8;" x="303.344056" xlink:href="#m42570b5050" y="252"/>
      </g>
     </g>
     <g id="text_7">
      <!-- 30 -->
      <defs>
       <path d="M 40.578125 39.3125 
Q 47.65625 37.796875 51.625 33 
Q 55.609375 28.21875 55.609375 21.1875 
Q 55.609375 10.40625 48.1875 4.484375 
Q 40.765625 -1.421875 27.09375 -1.421875 
Q 22.515625 -1.421875 17.65625 -0.515625 
Q 12.796875 0.390625 7.625 2.203125 
L 7.625 11.71875 
Q 11.71875 9.328125 16.59375 8.109375 
Q 21.484375 6.890625 26.8125 6.890625 
Q 36.078125 6.890625 40.9375 10.546875 
Q 45.796875 14.203125 45.796875 21.1875 
Q 45.796875 27.640625 41.28125 31.265625 
Q 36.765625 34.90625 28.71875 34.90625 
L 20.21875 34.90625 
L 20.21875 43.015625 
L 29.109375 43.015625 
Q 36.375 43.015625 40.234375 45.921875 
Q 44.09375 48.828125 44.09375 54.296875 
Q 44.09375 59.90625 40.109375 62.90625 
Q 36.140625 65.921875 28.71875 65.921875 
Q 24.65625 65.921875 20.015625 65.03125 
Q 15.375 64.15625 9.8125 62.3125 
L 9.8125 71.09375 
Q 15.4375 72.65625 20.34375 73.4375 
Q 25.25 74.21875 29.59375 74.21875 
Q 40.828125 74.21875 47.359375 69.109375 
Q 53.90625 64.015625 53.90625 55.328125 
Q 53.90625 49.265625 50.4375 45.09375 
Q 46.96875 40.921875 40.578125 39.3125 
z
" id="DejaVuSans-33"/>
      </defs>
      <g transform="translate(296.981556 266.598437)scale(0.1 -0.1)">
       <use xlink:href="#DejaVuSans-33"/>
       <use x="63.623047" xlink:href="#DejaVuSans-30"/>
      </g>
     </g>
    </g>
    <g id="xtick_8">
     <g id="line2d_8">
      <g>
       <use style="stroke:#000000;stroke-width:0.8;" x="342.365035" xlink:href="#m42570b5050" y="252"/>
      </g>
     </g>
     <g id="text_8">
      <!-- 35 -->
      <g transform="translate(336.002535 266.598437)scale(0.1 -0.1)">
       <use xlink:href="#DejaVuSans-33"/>
       <use x="63.623047" xlink:href="#DejaVuSans-35"/>
      </g>
     </g>
    </g>
    <g id="xtick_9">
     <g id="line2d_9">
      <g>
       <use style="stroke:#000000;stroke-width:0.8;" x="381.386014" xlink:href="#m42570b5050" y="252"/>
      </g>
     </g>
     <g id="text_9">
      <!-- 40 -->
      <defs>
       <path d="M 37.796875 64.3125 
L 12.890625 25.390625 
L 37.796875 25.390625 
z
M 35.203125 72.90625 
L 47.609375 72.90625 
L 47.609375 25.390625 
L 58.015625 25.390625 
L 58.015625 17.1875 
L 47.609375 17.1875 
L 47.609375 0 
L 37.796875 0 
L 37.796875 17.1875 
L 4.890625 17.1875 
L 4.890625 26.703125 
z
" id="DejaVuSans-34"/>
      </defs>
      <g transform="translate(375.023514 266.598437)scale(0.1 -0.1)">
       <use xlink:href="#DejaVuSans-34"/>
       <use x="63.623047" xlink:href="#DejaVuSans-30"/>
      </g>
     </g>
    </g>
    <g id="text_10">
     <!-- epoch -->
     <defs>
      <path d="M 56.203125 29.59375 
L 56.203125 25.203125 
L 14.890625 25.203125 
Q 15.484375 15.921875 20.484375 11.0625 
Q 25.484375 6.203125 34.421875 6.203125 
Q 39.59375 6.203125 44.453125 7.46875 
Q 49.3125 8.734375 54.109375 11.28125 
L 54.109375 2.78125 
Q 49.265625 0.734375 44.1875 -0.34375 
Q 39.109375 -1.421875 33.890625 -1.421875 
Q 20.796875 -1.421875 13.15625 6.1875 
Q 5.515625 13.8125 5.515625 26.8125 
Q 5.515625 40.234375 12.765625 48.109375 
Q 20.015625 56 32.328125 56 
Q 43.359375 56 49.78125 48.890625 
Q 56.203125 41.796875 56.203125 29.59375 
z
M 47.21875 32.234375 
Q 47.125 39.59375 43.09375 43.984375 
Q 39.0625 48.390625 32.421875 48.390625 
Q 24.90625 48.390625 20.390625 44.140625 
Q 15.875 39.890625 15.1875 32.171875 
z
" id="DejaVuSans-65"/>
      <path d="M 18.109375 8.203125 
L 18.109375 -20.796875 
L 9.078125 -20.796875 
L 9.078125 54.6875 
L 18.109375 54.6875 
L 18.109375 46.390625 
Q 20.953125 51.265625 25.265625 53.625 
Q 29.59375 56 35.59375 56 
Q 45.5625 56 51.78125 48.09375 
Q 58.015625 40.1875 58.015625 27.296875 
Q 58.015625 14.40625 51.78125 6.484375 
Q 45.5625 -1.421875 35.59375 -1.421875 
Q 29.59375 -1.421875 25.265625 0.953125 
Q 20.953125 3.328125 18.109375 8.203125 
z
M 48.6875 27.296875 
Q 48.6875 37.203125 44.609375 42.84375 
Q 40.53125 48.484375 33.40625 48.484375 
Q 26.265625 48.484375 22.1875 42.84375 
Q 18.109375 37.203125 18.109375 27.296875 
Q 18.109375 17.390625 22.1875 11.75 
Q 26.265625 6.109375 33.40625 6.109375 
Q 40.53125 6.109375 44.609375 11.75 
Q 48.6875 17.390625 48.6875 27.296875 
z
" id="DejaVuSans-70"/>
      <path d="M 30.609375 48.390625 
Q 23.390625 48.390625 19.1875 42.75 
Q 14.984375 37.109375 14.984375 27.296875 
Q 14.984375 17.484375 19.15625 11.84375 
Q 23.34375 6.203125 30.609375 6.203125 
Q 37.796875 6.203125 41.984375 11.859375 
Q 46.1875 17.53125 46.1875 27.296875 
Q 46.1875 37.015625 41.984375 42.703125 
Q 37.796875 48.390625 30.609375 48.390625 
z
M 30.609375 56 
Q 42.328125 56 49.015625 48.375 
Q 55.71875 40.765625 55.71875 27.296875 
Q 55.71875 13.875 49.015625 6.21875 
Q 42.328125 -1.421875 30.609375 -1.421875 
Q 18.84375 -1.421875 12.171875 6.21875 
Q 5.515625 13.875 5.515625 27.296875 
Q 5.515625 40.765625 12.171875 48.375 
Q 18.84375 56 30.609375 56 
z
" id="DejaVuSans-6f"/>
      <path d="M 48.78125 52.59375 
L 48.78125 44.1875 
Q 44.96875 46.296875 41.140625 47.34375 
Q 37.3125 48.390625 33.40625 48.390625 
Q 24.65625 48.390625 19.8125 42.84375 
Q 14.984375 37.3125 14.984375 27.296875 
Q 14.984375 17.28125 19.8125 11.734375 
Q 24.65625 6.203125 33.40625 6.203125 
Q 37.3125 6.203125 41.140625 7.25 
Q 44.96875 8.296875 48.78125 10.40625 
L 48.78125 2.09375 
Q 45.015625 0.34375 40.984375 -0.53125 
Q 36.96875 -1.421875 32.421875 -1.421875 
Q 20.0625 -1.421875 12.78125 6.34375 
Q 5.515625 14.109375 5.515625 27.296875 
Q 5.515625 40.671875 12.859375 48.328125 
Q 20.21875 56 33.015625 56 
Q 37.15625 56 41.109375 55.140625 
Q 45.0625 54.296875 48.78125 52.59375 
z
" id="DejaVuSans-63"/>
      <path d="M 54.890625 33.015625 
L 54.890625 0 
L 45.90625 0 
L 45.90625 32.71875 
Q 45.90625 40.484375 42.875 44.328125 
Q 39.84375 48.1875 33.796875 48.1875 
Q 26.515625 48.1875 22.3125 43.546875 
Q 18.109375 38.921875 18.109375 30.90625 
L 18.109375 0 
L 9.078125 0 
L 9.078125 75.984375 
L 18.109375 75.984375 
L 18.109375 46.1875 
Q 21.34375 51.125 25.703125 53.5625 
Q 30.078125 56 35.796875 56 
Q 45.21875 56 50.046875 50.171875 
Q 54.890625 44.34375 54.890625 33.015625 
z
" id="DejaVuSans-68"/>
     </defs>
     <g transform="translate(206.171875 280.276563)scale(0.1 -0.1)">
      <use xlink:href="#DejaVuSans-65"/>
      <use x="61.523438" xlink:href="#DejaVuSans-70"/>
      <use x="125" xlink:href="#DejaVuSans-6f"/>
      <use x="186.181641" xlink:href="#DejaVuSans-63"/>
      <use x="241.162109" xlink:href="#DejaVuSans-68"/>
     </g>
    </g>
   </g>
   <g id="matplotlib.axis_2">
    <g id="ytick_1">
     <g id="line2d_10">
      <defs>
       <path d="M 0 0 
L -3.5 0 
" id="m83bd96159e" style="stroke:#000000;stroke-width:0.8;"/>
      </defs>
      <g>
       <use style="stroke:#000000;stroke-width:0.8;" x="54" xlink:href="#m83bd96159e" y="245.617422"/>
      </g>
     </g>
     <g id="text_11">
      <!-- 52.5 -->
      <defs>
       <path d="M 10.6875 12.40625 
L 21 12.40625 
L 21 0 
L 10.6875 0 
z
" id="DejaVuSans-2e"/>
      </defs>
      <g transform="translate(24.734375 249.416641)scale(0.1 -0.1)">
       <use xlink:href="#DejaVuSans-35"/>
       <use x="63.623047" xlink:href="#DejaVuSans-32"/>
       <use x="127.246094" xlink:href="#DejaVuSans-2e"/>
       <use x="159.033203" xlink:href="#DejaVuSans-35"/>
      </g>
     </g>
    </g>
    <g id="ytick_2">
     <g id="line2d_11">
      <g>
       <use style="stroke:#000000;stroke-width:0.8;" x="54" xlink:href="#m83bd96159e" y="216.478693"/>
      </g>
     </g>
     <g id="text_12">
      <!-- 55.0 -->
      <g transform="translate(24.734375 220.277912)scale(0.1 -0.1)">
       <use xlink:href="#DejaVuSans-35"/>
       <use x="63.623047" xlink:href="#DejaVuSans-35"/>
       <use x="127.246094" xlink:href="#DejaVuSans-2e"/>
       <use x="159.033203" xlink:href="#DejaVuSans-30"/>
      </g>
     </g>
    </g>
    <g id="ytick_3">
     <g id="line2d_12">
      <g>
       <use style="stroke:#000000;stroke-width:0.8;" x="54" xlink:href="#m83bd96159e" y="187.339964"/>
      </g>
     </g>
     <g id="text_13">
      <!-- 57.5 -->
      <defs>
       <path d="M 8.203125 72.90625 
L 55.078125 72.90625 
L 55.078125 68.703125 
L 28.609375 0 
L 18.3125 0 
L 43.21875 64.59375 
L 8.203125 64.59375 
z
" id="DejaVuSans-37"/>
      </defs>
      <g transform="translate(24.734375 191.139183)scale(0.1 -0.1)">
       <use xlink:href="#DejaVuSans-35"/>
       <use x="63.623047" xlink:href="#DejaVuSans-37"/>
       <use x="127.246094" xlink:href="#DejaVuSans-2e"/>
       <use x="159.033203" xlink:href="#DejaVuSans-35"/>
      </g>
     </g>
    </g>
    <g id="ytick_4">
     <g id="line2d_13">
      <g>
       <use style="stroke:#000000;stroke-width:0.8;" x="54" xlink:href="#m83bd96159e" y="158.201235"/>
      </g>
     </g>
     <g id="text_14">
      <!-- 60.0 -->
      <defs>
       <path d="M 33.015625 40.375 
Q 26.375 40.375 22.484375 35.828125 
Q 18.609375 31.296875 18.609375 23.390625 
Q 18.609375 15.53125 22.484375 10.953125 
Q 26.375 6.390625 33.015625 6.390625 
Q 39.65625 6.390625 43.53125 10.953125 
Q 47.40625 15.53125 47.40625 23.390625 
Q 47.40625 31.296875 43.53125 35.828125 
Q 39.65625 40.375 33.015625 40.375 
z
M 52.59375 71.296875 
L 52.59375 62.3125 
Q 48.875 64.0625 45.09375 64.984375 
Q 41.3125 65.921875 37.59375 65.921875 
Q 27.828125 65.921875 22.671875 59.328125 
Q 17.53125 52.734375 16.796875 39.40625 
Q 19.671875 43.65625 24.015625 45.921875 
Q 28.375 48.1875 33.59375 48.1875 
Q 44.578125 48.1875 50.953125 41.515625 
Q 57.328125 34.859375 57.328125 23.390625 
Q 57.328125 12.15625 50.6875 5.359375 
Q 44.046875 -1.421875 33.015625 -1.421875 
Q 20.359375 -1.421875 13.671875 8.265625 
Q 6.984375 17.96875 6.984375 36.375 
Q 6.984375 53.65625 15.1875 63.9375 
Q 23.390625 74.21875 37.203125 74.21875 
Q 40.921875 74.21875 44.703125 73.484375 
Q 48.484375 72.75 52.59375 71.296875 
z
" id="DejaVuSans-36"/>
      </defs>
      <g transform="translate(24.734375 162.000453)scale(0.1 -0.1)">
       <use xlink:href="#DejaVuSans-36"/>
       <use x="63.623047" xlink:href="#DejaVuSans-30"/>
       <use x="127.246094" xlink:href="#DejaVuSans-2e"/>
       <use x="159.033203" xlink:href="#DejaVuSans-30"/>
      </g>
     </g>
    </g>
    <g id="ytick_5">
     <g id="line2d_14">
      <g>
       <use style="stroke:#000000;stroke-width:0.8;" x="54" xlink:href="#m83bd96159e" y="129.062506"/>
      </g>
     </g>
     <g id="text_15">
      <!-- 62.5 -->
      <g transform="translate(24.734375 132.861724)scale(0.1 -0.1)">
       <use xlink:href="#DejaVuSans-36"/>
       <use x="63.623047" xlink:href="#DejaVuSans-32"/>
       <use x="127.246094" xlink:href="#DejaVuSans-2e"/>
       <use x="159.033203" xlink:href="#DejaVuSans-35"/>
      </g>
     </g>
    </g>
    <g id="ytick_6">
     <g id="line2d_15">
      <g>
       <use style="stroke:#000000;stroke-width:0.8;" x="54" xlink:href="#m83bd96159e" y="99.923777"/>
      </g>
     </g>
     <g id="text_16">
      <!-- 65.0 -->
      <g transform="translate(24.734375 103.722995)scale(0.1 -0.1)">
       <use xlink:href="#DejaVuSans-36"/>
       <use x="63.623047" xlink:href="#DejaVuSans-35"/>
       <use x="127.246094" xlink:href="#DejaVuSans-2e"/>
       <use x="159.033203" xlink:href="#DejaVuSans-30"/>
      </g>
     </g>
    </g>
    <g id="ytick_7">
     <g id="line2d_16">
      <g>
       <use style="stroke:#000000;stroke-width:0.8;" x="54" xlink:href="#m83bd96159e" y="70.785047"/>
      </g>
     </g>
     <g id="text_17">
      <!-- 67.5 -->
      <g transform="translate(24.734375 74.584266)scale(0.1 -0.1)">
       <use xlink:href="#DejaVuSans-36"/>
       <use x="63.623047" xlink:href="#DejaVuSans-37"/>
       <use x="127.246094" xlink:href="#DejaVuSans-2e"/>
       <use x="159.033203" xlink:href="#DejaVuSans-35"/>
      </g>
     </g>
    </g>
    <g id="ytick_8">
     <g id="line2d_17">
      <g>
       <use style="stroke:#000000;stroke-width:0.8;" x="54" xlink:href="#m83bd96159e" y="41.646318"/>
      </g>
     </g>
     <g id="text_18">
      <!-- 70.0 -->
      <g transform="translate(24.734375 45.445537)scale(0.1 -0.1)">
       <use xlink:href="#DejaVuSans-37"/>
       <use x="63.623047" xlink:href="#DejaVuSans-30"/>
       <use x="127.246094" xlink:href="#DejaVuSans-2e"/>
       <use x="159.033203" xlink:href="#DejaVuSans-30"/>
      </g>
     </g>
    </g>
    <g id="text_19">
     <!-- EM -->
     <defs>
      <path d="M 9.8125 72.90625 
L 55.90625 72.90625 
L 55.90625 64.59375 
L 19.671875 64.59375 
L 19.671875 43.015625 
L 54.390625 43.015625 
L 54.390625 34.71875 
L 19.671875 34.71875 
L 19.671875 8.296875 
L 56.78125 8.296875 
L 56.78125 0 
L 9.8125 0 
z
" id="DejaVuSans-45"/>
      <path d="M 9.8125 72.90625 
L 24.515625 72.90625 
L 43.109375 23.296875 
L 61.8125 72.90625 
L 76.515625 72.90625 
L 76.515625 0 
L 66.890625 0 
L 66.890625 64.015625 
L 48.09375 14.015625 
L 38.1875 14.015625 
L 19.390625 64.015625 
L 19.390625 0 
L 9.8125 0 
z
" id="DejaVuSans-4d"/>
     </defs>
     <g transform="translate(18.654688 150.753437)rotate(-90)scale(0.1 -0.1)">
      <use xlink:href="#DejaVuSans-45"/>
      <use x="63.183594" xlink:href="#DejaVuSans-4d"/>
     </g>
    </g>
   </g>
   <g id="line2d_18">
    <path clip-path="url(#pa48bb58498)" d="M 69.218182 228.950069 
L 77.022378 177.083131 
L 84.826573 144.09809 
L 92.630769 120.903661 
L 100.434965 108.54884 
L 108.239161 90.599383 
L 116.043357 88.61795 
L 123.847552 82.090874 
L 131.651748 75.330689 
L 139.455944 69.736053 
L 147.26014 66.239406 
L 155.064336 63.208978 
L 162.868531 63.908307 
L 170.672727 58.663336 
L 178.476923 62.509648 
L 186.281119 54.933579 
L 194.085315 54.00114 
L 201.88951 57.964007 
L 209.693706 57.148122 
L 217.497902 54.933579 
L 225.302098 50.621047 
L 233.106294 47.823729 
L 240.91049 57.847452 
L 248.714685 48.173394 
L 256.518881 49.105833 
L 264.323077 50.504492 
L 272.127273 50.154827 
L 279.931469 47.707174 
L 287.735664 51.436931 
L 295.53986 48.756168 
L 303.344056 51.320376 
L 311.148252 50.854157 
L 318.952448 45.609186 
L 326.756643 52.83559 
L 334.560839 46.65818 
L 342.365035 44.443636 
L 350.169231 52.485926 
L 357.973427 46.541625 
L 365.777622 49.338943 
L 373.581818 46.308515 
" style="fill:none;opacity:0.5;stroke:#1f77b4;stroke-linecap:square;"/>
    <defs>
     <path d="M 0 1.5 
C 0.397805 1.5 0.77937 1.341951 1.06066 1.06066 
C 1.341951 0.77937 1.5 0.397805 1.5 0 
C 1.5 -0.397805 1.341951 -0.77937 1.06066 -1.06066 
C 0.77937 -1.341951 0.397805 -1.5 0 -1.5 
C -0.397805 -1.5 -0.77937 -1.341951 -1.06066 -1.06066 
C -1.341951 -0.77937 -1.5 -0.397805 -1.5 0 
C -1.5 0.397805 -1.341951 0.77937 -1.06066 1.06066 
C -0.77937 1.341951 -0.397805 1.5 0 1.5 
z
" id="ma64c8c1b42" style="stroke:#1f77b4;"/>
    </defs>
    <g clip-path="url(#pa48bb58498)">
     <use style="fill:#1f77b4;opacity:0.5;stroke:#1f77b4;" x="69.218182" xlink:href="#ma64c8c1b42" y="228.950069"/>
     <use style="fill:#1f77b4;opacity:0.5;stroke:#1f77b4;" x="77.022378" xlink:href="#ma64c8c1b42" y="177.083131"/>
     <use style="fill:#1f77b4;opacity:0.5;stroke:#1f77b4;" x="84.826573" xlink:href="#ma64c8c1b42" y="144.09809"/>
     <use style="fill:#1f77b4;opacity:0.5;stroke:#1f77b4;" x="92.630769" xlink:href="#ma64c8c1b42" y="120.903661"/>
     <use style="fill:#1f77b4;opacity:0.5;stroke:#1f77b4;" x="100.434965" xlink:href="#ma64c8c1b42" y="108.54884"/>
     <use style="fill:#1f77b4;opacity:0.5;stroke:#1f77b4;" x="108.239161" xlink:href="#ma64c8c1b42" y="90.599383"/>
     <use style="fill:#1f77b4;opacity:0.5;stroke:#1f77b4;" x="116.043357" xlink:href="#ma64c8c1b42" y="88.61795"/>
     <use style="fill:#1f77b4;opacity:0.5;stroke:#1f77b4;" x="123.847552" xlink:href="#ma64c8c1b42" y="82.090874"/>
     <use style="fill:#1f77b4;opacity:0.5;stroke:#1f77b4;" x="131.651748" xlink:href="#ma64c8c1b42" y="75.330689"/>
     <use style="fill:#1f77b4;opacity:0.5;stroke:#1f77b4;" x="139.455944" xlink:href="#ma64c8c1b42" y="69.736053"/>
     <use style="fill:#1f77b4;opacity:0.5;stroke:#1f77b4;" x="147.26014" xlink:href="#ma64c8c1b42" y="66.239406"/>
     <use style="fill:#1f77b4;opacity:0.5;stroke:#1f77b4;" x="155.064336" xlink:href="#ma64c8c1b42" y="63.208978"/>
     <use style="fill:#1f77b4;opacity:0.5;stroke:#1f77b4;" x="162.868531" xlink:href="#ma64c8c1b42" y="63.908307"/>
     <use style="fill:#1f77b4;opacity:0.5;stroke:#1f77b4;" x="170.672727" xlink:href="#ma64c8c1b42" y="58.663336"/>
     <use style="fill:#1f77b4;opacity:0.5;stroke:#1f77b4;" x="178.476923" xlink:href="#ma64c8c1b42" y="62.509648"/>
     <use style="fill:#1f77b4;opacity:0.5;stroke:#1f77b4;" x="186.281119" xlink:href="#ma64c8c1b42" y="54.933579"/>
     <use style="fill:#1f77b4;opacity:0.5;stroke:#1f77b4;" x="194.085315" xlink:href="#ma64c8c1b42" y="54.00114"/>
     <use style="fill:#1f77b4;opacity:0.5;stroke:#1f77b4;" x="201.88951" xlink:href="#ma64c8c1b42" y="57.964007"/>
     <use style="fill:#1f77b4;opacity:0.5;stroke:#1f77b4;" x="209.693706" xlink:href="#ma64c8c1b42" y="57.148122"/>
     <use style="fill:#1f77b4;opacity:0.5;stroke:#1f77b4;" x="217.497902" xlink:href="#ma64c8c1b42" y="54.933579"/>
     <use style="fill:#1f77b4;opacity:0.5;stroke:#1f77b4;" x="225.302098" xlink:href="#ma64c8c1b42" y="50.621047"/>
     <use style="fill:#1f77b4;opacity:0.5;stroke:#1f77b4;" x="233.106294" xlink:href="#ma64c8c1b42" y="47.823729"/>
     <use style="fill:#1f77b4;opacity:0.5;stroke:#1f77b4;" x="240.91049" xlink:href="#ma64c8c1b42" y="57.847452"/>
     <use style="fill:#1f77b4;opacity:0.5;stroke:#1f77b4;" x="248.714685" xlink:href="#ma64c8c1b42" y="48.173394"/>
     <use style="fill:#1f77b4;opacity:0.5;stroke:#1f77b4;" x="256.518881" xlink:href="#ma64c8c1b42" y="49.105833"/>
     <use style="fill:#1f77b4;opacity:0.5;stroke:#1f77b4;" x="264.323077" xlink:href="#ma64c8c1b42" y="50.504492"/>
     <use style="fill:#1f77b4;opacity:0.5;stroke:#1f77b4;" x="272.127273" xlink:href="#ma64c8c1b42" y="50.154827"/>
     <use style="fill:#1f77b4;opacity:0.5;stroke:#1f77b4;" x="279.931469" xlink:href="#ma64c8c1b42" y="47.707174"/>
     <use style="fill:#1f77b4;opacity:0.5;stroke:#1f77b4;" x="287.735664" xlink:href="#ma64c8c1b42" y="51.436931"/>
     <use style="fill:#1f77b4;opacity:0.5;stroke:#1f77b4;" x="295.53986" xlink:href="#ma64c8c1b42" y="48.756168"/>
     <use style="fill:#1f77b4;opacity:0.5;stroke:#1f77b4;" x="303.344056" xlink:href="#ma64c8c1b42" y="51.320376"/>
     <use style="fill:#1f77b4;opacity:0.5;stroke:#1f77b4;" x="311.148252" xlink:href="#ma64c8c1b42" y="50.854157"/>
     <use style="fill:#1f77b4;opacity:0.5;stroke:#1f77b4;" x="318.952448" xlink:href="#ma64c8c1b42" y="45.609186"/>
     <use style="fill:#1f77b4;opacity:0.5;stroke:#1f77b4;" x="326.756643" xlink:href="#ma64c8c1b42" y="52.83559"/>
     <use style="fill:#1f77b4;opacity:0.5;stroke:#1f77b4;" x="334.560839" xlink:href="#ma64c8c1b42" y="46.65818"/>
     <use style="fill:#1f77b4;opacity:0.5;stroke:#1f77b4;" x="342.365035" xlink:href="#ma64c8c1b42" y="44.443636"/>
     <use style="fill:#1f77b4;opacity:0.5;stroke:#1f77b4;" x="350.169231" xlink:href="#ma64c8c1b42" y="52.485926"/>
     <use style="fill:#1f77b4;opacity:0.5;stroke:#1f77b4;" x="357.973427" xlink:href="#ma64c8c1b42" y="46.541625"/>
     <use style="fill:#1f77b4;opacity:0.5;stroke:#1f77b4;" x="365.777622" xlink:href="#ma64c8c1b42" y="49.338943"/>
     <use style="fill:#1f77b4;opacity:0.5;stroke:#1f77b4;" x="373.581818" xlink:href="#ma64c8c1b42" y="46.308515"/>
    </g>
   </g>
   <g id="line2d_19">
    <path clip-path="url(#pa48bb58498)" d="M 69.218182 228.950069 
L 77.022378 177.083131 
L 84.826573 144.09809 
L 92.630769 120.903661 
L 100.434965 108.54884 
L 108.239161 90.599383 
L 116.043357 88.61795 
L 123.847552 82.090874 
L 131.651748 75.330689 
L 139.455944 69.736053 
L 147.26014 66.239406 
L 155.064336 63.208978 
L 162.868531 63.908307 
L 170.672727 58.663336 
L 178.476923 62.509648 
L 186.281119 54.933579 
L 194.085315 54.467359 
L 201.88951 56.448793 
L 209.693706 56.448793 
L 217.497902 55.632908 
L 225.302098 50.621047 
L 233.106294 47.124399 
L 240.91049 51.786596 
L 248.714685 47.590619 
L 256.518881 49.105833 
L 264.323077 49.222388 
L 272.127273 49.222388 
L 279.931469 49.105833 
L 287.735664 48.406504 
L 295.53986 49.921717 
L 303.344056 45.026411 
L 311.148252 50.854157 
L 318.952448 46.774735 
L 326.756643 50.854157 
L 334.560839 45.026411 
L 342.365035 49.572053 
L 350.169231 56.099128 
L 357.973427 54.117694 
L 365.777622 55.399798 
L 373.581818 51.203822 
" style="fill:none;opacity:0.5;stroke:#ff7f0e;stroke-linecap:square;"/>
    <defs>
     <path d="M 0 1.5 
C 0.397805 1.5 0.77937 1.341951 1.06066 1.06066 
C 1.341951 0.77937 1.5 0.397805 1.5 0 
C 1.5 -0.397805 1.341951 -0.77937 1.06066 -1.06066 
C 0.77937 -1.341951 0.397805 -1.5 0 -1.5 
C -0.397805 -1.5 -0.77937 -1.341951 -1.06066 -1.06066 
C -1.341951 -0.77937 -1.5 -0.397805 -1.5 0 
C -1.5 0.397805 -1.341951 0.77937 -1.06066 1.06066 
C -0.77937 1.341951 -0.397805 1.5 0 1.5 
z
" id="me15b81db33" style="stroke:#ff7f0e;"/>
    </defs>
    <g clip-path="url(#pa48bb58498)">
     <use style="fill:#ff7f0e;opacity:0.5;stroke:#ff7f0e;" x="69.218182" xlink:href="#me15b81db33" y="228.950069"/>
     <use style="fill:#ff7f0e;opacity:0.5;stroke:#ff7f0e;" x="77.022378" xlink:href="#me15b81db33" y="177.083131"/>
     <use style="fill:#ff7f0e;opacity:0.5;stroke:#ff7f0e;" x="84.826573" xlink:href="#me15b81db33" y="144.09809"/>
     <use style="fill:#ff7f0e;opacity:0.5;stroke:#ff7f0e;" x="92.630769" xlink:href="#me15b81db33" y="120.903661"/>
     <use style="fill:#ff7f0e;opacity:0.5;stroke:#ff7f0e;" x="100.434965" xlink:href="#me15b81db33" y="108.54884"/>
     <use style="fill:#ff7f0e;opacity:0.5;stroke:#ff7f0e;" x="108.239161" xlink:href="#me15b81db33" y="90.599383"/>
     <use style="fill:#ff7f0e;opacity:0.5;stroke:#ff7f0e;" x="116.043357" xlink:href="#me15b81db33" y="88.61795"/>
     <use style="fill:#ff7f0e;opacity:0.5;stroke:#ff7f0e;" x="123.847552" xlink:href="#me15b81db33" y="82.090874"/>
     <use style="fill:#ff7f0e;opacity:0.5;stroke:#ff7f0e;" x="131.651748" xlink:href="#me15b81db33" y="75.330689"/>
     <use style="fill:#ff7f0e;opacity:0.5;stroke:#ff7f0e;" x="139.455944" xlink:href="#me15b81db33" y="69.736053"/>
     <use style="fill:#ff7f0e;opacity:0.5;stroke:#ff7f0e;" x="147.26014" xlink:href="#me15b81db33" y="66.239406"/>
     <use style="fill:#ff7f0e;opacity:0.5;stroke:#ff7f0e;" x="155.064336" xlink:href="#me15b81db33" y="63.208978"/>
     <use style="fill:#ff7f0e;opacity:0.5;stroke:#ff7f0e;" x="162.868531" xlink:href="#me15b81db33" y="63.908307"/>
     <use style="fill:#ff7f0e;opacity:0.5;stroke:#ff7f0e;" x="170.672727" xlink:href="#me15b81db33" y="58.663336"/>
     <use style="fill:#ff7f0e;opacity:0.5;stroke:#ff7f0e;" x="178.476923" xlink:href="#me15b81db33" y="62.509648"/>
     <use style="fill:#ff7f0e;opacity:0.5;stroke:#ff7f0e;" x="186.281119" xlink:href="#me15b81db33" y="54.933579"/>
     <use style="fill:#ff7f0e;opacity:0.5;stroke:#ff7f0e;" x="194.085315" xlink:href="#me15b81db33" y="54.467359"/>
     <use style="fill:#ff7f0e;opacity:0.5;stroke:#ff7f0e;" x="201.88951" xlink:href="#me15b81db33" y="56.448793"/>
     <use style="fill:#ff7f0e;opacity:0.5;stroke:#ff7f0e;" x="209.693706" xlink:href="#me15b81db33" y="56.448793"/>
     <use style="fill:#ff7f0e;opacity:0.5;stroke:#ff7f0e;" x="217.497902" xlink:href="#me15b81db33" y="55.632908"/>
     <use style="fill:#ff7f0e;opacity:0.5;stroke:#ff7f0e;" x="225.302098" xlink:href="#me15b81db33" y="50.621047"/>
     <use style="fill:#ff7f0e;opacity:0.5;stroke:#ff7f0e;" x="233.106294" xlink:href="#me15b81db33" y="47.124399"/>
     <use style="fill:#ff7f0e;opacity:0.5;stroke:#ff7f0e;" x="240.91049" xlink:href="#me15b81db33" y="51.786596"/>
     <use style="fill:#ff7f0e;opacity:0.5;stroke:#ff7f0e;" x="248.714685" xlink:href="#me15b81db33" y="47.590619"/>
     <use style="fill:#ff7f0e;opacity:0.5;stroke:#ff7f0e;" x="256.518881" xlink:href="#me15b81db33" y="49.105833"/>
     <use style="fill:#ff7f0e;opacity:0.5;stroke:#ff7f0e;" x="264.323077" xlink:href="#me15b81db33" y="49.222388"/>
     <use style="fill:#ff7f0e;opacity:0.5;stroke:#ff7f0e;" x="272.127273" xlink:href="#me15b81db33" y="49.222388"/>
     <use style="fill:#ff7f0e;opacity:0.5;stroke:#ff7f0e;" x="279.931469" xlink:href="#me15b81db33" y="49.105833"/>
     <use style="fill:#ff7f0e;opacity:0.5;stroke:#ff7f0e;" x="287.735664" xlink:href="#me15b81db33" y="48.406504"/>
     <use style="fill:#ff7f0e;opacity:0.5;stroke:#ff7f0e;" x="295.53986" xlink:href="#me15b81db33" y="49.921717"/>
     <use style="fill:#ff7f0e;opacity:0.5;stroke:#ff7f0e;" x="303.344056" xlink:href="#me15b81db33" y="45.026411"/>
     <use style="fill:#ff7f0e;opacity:0.5;stroke:#ff7f0e;" x="311.148252" xlink:href="#me15b81db33" y="50.854157"/>
     <use style="fill:#ff7f0e;opacity:0.5;stroke:#ff7f0e;" x="318.952448" xlink:href="#me15b81db33" y="46.774735"/>
     <use style="fill:#ff7f0e;opacity:0.5;stroke:#ff7f0e;" x="326.756643" xlink:href="#me15b81db33" y="50.854157"/>
     <use style="fill:#ff7f0e;opacity:0.5;stroke:#ff7f0e;" x="334.560839" xlink:href="#me15b81db33" y="45.026411"/>
     <use style="fill:#ff7f0e;opacity:0.5;stroke:#ff7f0e;" x="342.365035" xlink:href="#me15b81db33" y="49.572053"/>
     <use style="fill:#ff7f0e;opacity:0.5;stroke:#ff7f0e;" x="350.169231" xlink:href="#me15b81db33" y="56.099128"/>
     <use style="fill:#ff7f0e;opacity:0.5;stroke:#ff7f0e;" x="357.973427" xlink:href="#me15b81db33" y="54.117694"/>
     <use style="fill:#ff7f0e;opacity:0.5;stroke:#ff7f0e;" x="365.777622" xlink:href="#me15b81db33" y="55.399798"/>
     <use style="fill:#ff7f0e;opacity:0.5;stroke:#ff7f0e;" x="373.581818" xlink:href="#me15b81db33" y="51.203822"/>
    </g>
   </g>
   <g id="line2d_20">
    <path clip-path="url(#pa48bb58498)" d="M 69.218182 242.116364 
L 77.022378 175.623824 
L 84.826573 148.718053 
L 92.630769 118.945274 
L 100.434965 113.542066 
L 108.239161 98.435138 
L 116.043357 88.510878 
L 123.847552 90.275191 
L 131.651748 78.476349 
L 139.455944 76.050419 
L 147.26014 69.323976 
L 155.064336 63.038611 
L 162.868531 64.251577 
L 170.672727 62.707803 
L 178.476923 58.738099 
L 186.281119 62.707803 
L 194.085315 54.768395 
L 201.88951 54.988934 
L 209.693706 57.084056 
L 217.497902 59.179177 
L 225.302098 49.916535 
L 233.106294 49.254917 
L 240.91049 53.44516 
L 248.714685 56.863517 
L 256.518881 52.452734 
L 264.323077 54.658125 
L 272.127273 51.570578 
L 279.931469 47.821413 
L 287.735664 55.650551 
L 295.53986 54.437586 
L 303.344056 53.6657 
L 311.148252 54.768395 
L 318.952448 47.490605 
L 326.756643 54.988934 
L 334.560839 54.768395 
L 342.365035 49.695996 
L 350.169231 51.1295 
L 357.973427 53.996508 
L 365.777622 53.6657 
L 373.581818 45.836561 
" style="fill:none;opacity:0.5;stroke:#2ca02c;stroke-linecap:square;"/>
    <defs>
     <path d="M 0 1.5 
C 0.397805 1.5 0.77937 1.341951 1.06066 1.06066 
C 1.341951 0.77937 1.5 0.397805 1.5 0 
C 1.5 -0.397805 1.341951 -0.77937 1.06066 -1.06066 
C 0.77937 -1.341951 0.397805 -1.5 0 -1.5 
C -0.397805 -1.5 -0.77937 -1.341951 -1.06066 -1.06066 
C -1.341951 -0.77937 -1.5 -0.397805 -1.5 0 
C -1.5 0.397805 -1.341951 0.77937 -1.06066 1.06066 
C -0.77937 1.341951 -0.397805 1.5 0 1.5 
z
" id="m4e22549cce" style="stroke:#2ca02c;"/>
    </defs>
    <g clip-path="url(#pa48bb58498)">
     <use style="fill:#2ca02c;opacity:0.5;stroke:#2ca02c;" x="69.218182" xlink:href="#m4e22549cce" y="242.116364"/>
     <use style="fill:#2ca02c;opacity:0.5;stroke:#2ca02c;" x="77.022378" xlink:href="#m4e22549cce" y="175.623824"/>
     <use style="fill:#2ca02c;opacity:0.5;stroke:#2ca02c;" x="84.826573" xlink:href="#m4e22549cce" y="148.718053"/>
     <use style="fill:#2ca02c;opacity:0.5;stroke:#2ca02c;" x="92.630769" xlink:href="#m4e22549cce" y="118.945274"/>
     <use style="fill:#2ca02c;opacity:0.5;stroke:#2ca02c;" x="100.434965" xlink:href="#m4e22549cce" y="113.542066"/>
     <use style="fill:#2ca02c;opacity:0.5;stroke:#2ca02c;" x="108.239161" xlink:href="#m4e22549cce" y="98.435138"/>
     <use style="fill:#2ca02c;opacity:0.5;stroke:#2ca02c;" x="116.043357" xlink:href="#m4e22549cce" y="88.510878"/>
     <use style="fill:#2ca02c;opacity:0.5;stroke:#2ca02c;" x="123.847552" xlink:href="#m4e22549cce" y="90.275191"/>
     <use style="fill:#2ca02c;opacity:0.5;stroke:#2ca02c;" x="131.651748" xlink:href="#m4e22549cce" y="78.476349"/>
     <use style="fill:#2ca02c;opacity:0.5;stroke:#2ca02c;" x="139.455944" xlink:href="#m4e22549cce" y="76.050419"/>
     <use style="fill:#2ca02c;opacity:0.5;stroke:#2ca02c;" x="147.26014" xlink:href="#m4e22549cce" y="69.323976"/>
     <use style="fill:#2ca02c;opacity:0.5;stroke:#2ca02c;" x="155.064336" xlink:href="#m4e22549cce" y="63.038611"/>
     <use style="fill:#2ca02c;opacity:0.5;stroke:#2ca02c;" x="162.868531" xlink:href="#m4e22549cce" y="64.251577"/>
     <use style="fill:#2ca02c;opacity:0.5;stroke:#2ca02c;" x="170.672727" xlink:href="#m4e22549cce" y="62.707803"/>
     <use style="fill:#2ca02c;opacity:0.5;stroke:#2ca02c;" x="178.476923" xlink:href="#m4e22549cce" y="58.738099"/>
     <use style="fill:#2ca02c;opacity:0.5;stroke:#2ca02c;" x="186.281119" xlink:href="#m4e22549cce" y="62.707803"/>
     <use style="fill:#2ca02c;opacity:0.5;stroke:#2ca02c;" x="194.085315" xlink:href="#m4e22549cce" y="54.768395"/>
     <use style="fill:#2ca02c;opacity:0.5;stroke:#2ca02c;" x="201.88951" xlink:href="#m4e22549cce" y="54.988934"/>
     <use style="fill:#2ca02c;opacity:0.5;stroke:#2ca02c;" x="209.693706" xlink:href="#m4e22549cce" y="57.084056"/>
     <use style="fill:#2ca02c;opacity:0.5;stroke:#2ca02c;" x="217.497902" xlink:href="#m4e22549cce" y="59.179177"/>
     <use style="fill:#2ca02c;opacity:0.5;stroke:#2ca02c;" x="225.302098" xlink:href="#m4e22549cce" y="49.916535"/>
     <use style="fill:#2ca02c;opacity:0.5;stroke:#2ca02c;" x="233.106294" xlink:href="#m4e22549cce" y="49.254917"/>
     <use style="fill:#2ca02c;opacity:0.5;stroke:#2ca02c;" x="240.91049" xlink:href="#m4e22549cce" y="53.44516"/>
     <use style="fill:#2ca02c;opacity:0.5;stroke:#2ca02c;" x="248.714685" xlink:href="#m4e22549cce" y="56.863517"/>
     <use style="fill:#2ca02c;opacity:0.5;stroke:#2ca02c;" x="256.518881" xlink:href="#m4e22549cce" y="52.452734"/>
     <use style="fill:#2ca02c;opacity:0.5;stroke:#2ca02c;" x="264.323077" xlink:href="#m4e22549cce" y="54.658125"/>
     <use style="fill:#2ca02c;opacity:0.5;stroke:#2ca02c;" x="272.127273" xlink:href="#m4e22549cce" y="51.570578"/>
     <use style="fill:#2ca02c;opacity:0.5;stroke:#2ca02c;" x="279.931469" xlink:href="#m4e22549cce" y="47.821413"/>
     <use style="fill:#2ca02c;opacity:0.5;stroke:#2ca02c;" x="287.735664" xlink:href="#m4e22549cce" y="55.650551"/>
     <use style="fill:#2ca02c;opacity:0.5;stroke:#2ca02c;" x="295.53986" xlink:href="#m4e22549cce" y="54.437586"/>
     <use style="fill:#2ca02c;opacity:0.5;stroke:#2ca02c;" x="303.344056" xlink:href="#m4e22549cce" y="53.6657"/>
     <use style="fill:#2ca02c;opacity:0.5;stroke:#2ca02c;" x="311.148252" xlink:href="#m4e22549cce" y="54.768395"/>
     <use style="fill:#2ca02c;opacity:0.5;stroke:#2ca02c;" x="318.952448" xlink:href="#m4e22549cce" y="47.490605"/>
     <use style="fill:#2ca02c;opacity:0.5;stroke:#2ca02c;" x="326.756643" xlink:href="#m4e22549cce" y="54.988934"/>
     <use style="fill:#2ca02c;opacity:0.5;stroke:#2ca02c;" x="334.560839" xlink:href="#m4e22549cce" y="54.768395"/>
     <use style="fill:#2ca02c;opacity:0.5;stroke:#2ca02c;" x="342.365035" xlink:href="#m4e22549cce" y="49.695996"/>
     <use style="fill:#2ca02c;opacity:0.5;stroke:#2ca02c;" x="350.169231" xlink:href="#m4e22549cce" y="51.1295"/>
     <use style="fill:#2ca02c;opacity:0.5;stroke:#2ca02c;" x="357.973427" xlink:href="#m4e22549cce" y="53.996508"/>
     <use style="fill:#2ca02c;opacity:0.5;stroke:#2ca02c;" x="365.777622" xlink:href="#m4e22549cce" y="53.6657"/>
     <use style="fill:#2ca02c;opacity:0.5;stroke:#2ca02c;" x="373.581818" xlink:href="#m4e22549cce" y="45.836561"/>
    </g>
   </g>
   <g id="line2d_21">
    <path clip-path="url(#pa48bb58498)" d="M 69.218182 47.474064 
L 77.022378 47.474064 
L 84.826573 47.474064 
L 92.630769 47.474064 
L 100.434965 47.474064 
L 108.239161 47.474064 
L 116.043357 47.474064 
L 123.847552 47.474064 
L 131.651748 47.474064 
L 139.455944 47.474064 
L 147.26014 47.474064 
L 155.064336 47.474064 
L 162.868531 47.474064 
L 170.672727 47.474064 
L 178.476923 47.474064 
L 186.281119 47.474064 
L 194.085315 47.474064 
L 201.88951 47.474064 
L 209.693706 47.474064 
L 217.497902 47.474064 
L 225.302098 47.474064 
L 233.106294 47.474064 
L 240.91049 47.474064 
L 248.714685 47.474064 
L 256.518881 47.474064 
L 264.323077 47.474064 
L 272.127273 47.474064 
L 279.931469 47.474064 
L 287.735664 47.474064 
L 295.53986 47.474064 
L 303.344056 47.474064 
L 311.148252 47.474064 
L 318.952448 47.474064 
L 326.756643 47.474064 
L 334.560839 47.474064 
L 342.365035 47.474064 
L 350.169231 47.474064 
L 357.973427 47.474064 
L 365.777622 47.474064 
L 373.581818 47.474064 
" style="fill:none;opacity:0.3;stroke:#d62728;stroke-linecap:square;stroke-width:2;"/>
   </g>
   <g id="patch_3">
    <path d="M 54 252 
L 54 34.56 
" style="fill:none;stroke:#000000;stroke-linecap:square;stroke-linejoin:miter;stroke-width:0.8;"/>
   </g>
   <g id="patch_4">
    <path d="M 388.8 252 
L 388.8 34.56 
" style="fill:none;stroke:#000000;stroke-linecap:square;stroke-linejoin:miter;stroke-width:0.8;"/>
   </g>
   <g id="patch_5">
    <path d="M 54 252 
L 388.8 252 
" style="fill:none;stroke:#000000;stroke-linecap:square;stroke-linejoin:miter;stroke-width:0.8;"/>
   </g>
   <g id="patch_6">
    <path d="M 54 34.56 
L 388.8 34.56 
" style="fill:none;stroke:#000000;stroke-linecap:square;stroke-linejoin:miter;stroke-width:0.8;"/>
   </g>
   <g id="legend_1">
    <g id="patch_7">
     <path d="M 274.3125 247 
L 381.8 247 
Q 383.8 247 383.8 245 
L 383.8 187.2875 
Q 383.8 185.2875 381.8 185.2875 
L 274.3125 185.2875 
Q 272.3125 185.2875 272.3125 187.2875 
L 272.3125 245 
Q 272.3125 247 274.3125 247 
z
" style="fill:#ffffff;opacity:0.8;stroke:#cccccc;stroke-linejoin:miter;"/>
    </g>
    <g id="line2d_22">
     <path d="M 276.3125 193.385938 
L 296.3125 193.385938 
" style="fill:none;opacity:0.5;stroke:#1f77b4;stroke-linecap:square;"/>
    </g>
    <g id="line2d_23">
     <g>
      <use style="fill:#1f77b4;opacity:0.5;stroke:#1f77b4;" x="286.3125" xlink:href="#ma64c8c1b42" y="193.385938"/>
     </g>
    </g>
    <g id="text_20">
     <!-- offical(corenlp) -->
     <defs>
      <path d="M 37.109375 75.984375 
L 37.109375 68.5 
L 28.515625 68.5 
Q 23.6875 68.5 21.796875 66.546875 
Q 19.921875 64.59375 19.921875 59.515625 
L 19.921875 54.6875 
L 34.71875 54.6875 
L 34.71875 47.703125 
L 19.921875 47.703125 
L 19.921875 0 
L 10.890625 0 
L 10.890625 47.703125 
L 2.296875 47.703125 
L 2.296875 54.6875 
L 10.890625 54.6875 
L 10.890625 58.5 
Q 10.890625 67.625 15.140625 71.796875 
Q 19.390625 75.984375 28.609375 75.984375 
z
" id="DejaVuSans-66"/>
      <path d="M 9.421875 54.6875 
L 18.40625 54.6875 
L 18.40625 0 
L 9.421875 0 
z
M 9.421875 75.984375 
L 18.40625 75.984375 
L 18.40625 64.59375 
L 9.421875 64.59375 
z
" id="DejaVuSans-69"/>
      <path d="M 34.28125 27.484375 
Q 23.390625 27.484375 19.1875 25 
Q 14.984375 22.515625 14.984375 16.5 
Q 14.984375 11.71875 18.140625 8.90625 
Q 21.296875 6.109375 26.703125 6.109375 
Q 34.1875 6.109375 38.703125 11.40625 
Q 43.21875 16.703125 43.21875 25.484375 
L 43.21875 27.484375 
z
M 52.203125 31.203125 
L 52.203125 0 
L 43.21875 0 
L 43.21875 8.296875 
Q 40.140625 3.328125 35.546875 0.953125 
Q 30.953125 -1.421875 24.3125 -1.421875 
Q 15.921875 -1.421875 10.953125 3.296875 
Q 6 8.015625 6 15.921875 
Q 6 25.140625 12.171875 29.828125 
Q 18.359375 34.515625 30.609375 34.515625 
L 43.21875 34.515625 
L 43.21875 35.40625 
Q 43.21875 41.609375 39.140625 45 
Q 35.0625 48.390625 27.6875 48.390625 
Q 23 48.390625 18.546875 47.265625 
Q 14.109375 46.140625 10.015625 43.890625 
L 10.015625 52.203125 
Q 14.9375 54.109375 19.578125 55.046875 
Q 24.21875 56 28.609375 56 
Q 40.484375 56 46.34375 49.84375 
Q 52.203125 43.703125 52.203125 31.203125 
z
" id="DejaVuSans-61"/>
      <path d="M 9.421875 75.984375 
L 18.40625 75.984375 
L 18.40625 0 
L 9.421875 0 
z
" id="DejaVuSans-6c"/>
      <path d="M 31 75.875 
Q 24.46875 64.65625 21.28125 53.65625 
Q 18.109375 42.671875 18.109375 31.390625 
Q 18.109375 20.125 21.3125 9.0625 
Q 24.515625 -2 31 -13.1875 
L 23.1875 -13.1875 
Q 15.875 -1.703125 12.234375 9.375 
Q 8.59375 20.453125 8.59375 31.390625 
Q 8.59375 42.28125 12.203125 53.3125 
Q 15.828125 64.359375 23.1875 75.875 
z
" id="DejaVuSans-28"/>
      <path d="M 41.109375 46.296875 
Q 39.59375 47.171875 37.8125 47.578125 
Q 36.03125 48 33.890625 48 
Q 26.265625 48 22.1875 43.046875 
Q 18.109375 38.09375 18.109375 28.8125 
L 18.109375 0 
L 9.078125 0 
L 9.078125 54.6875 
L 18.109375 54.6875 
L 18.109375 46.1875 
Q 20.953125 51.171875 25.484375 53.578125 
Q 30.03125 56 36.53125 56 
Q 37.453125 56 38.578125 55.875 
Q 39.703125 55.765625 41.0625 55.515625 
z
" id="DejaVuSans-72"/>
      <path d="M 54.890625 33.015625 
L 54.890625 0 
L 45.90625 0 
L 45.90625 32.71875 
Q 45.90625 40.484375 42.875 44.328125 
Q 39.84375 48.1875 33.796875 48.1875 
Q 26.515625 48.1875 22.3125 43.546875 
Q 18.109375 38.921875 18.109375 30.90625 
L 18.109375 0 
L 9.078125 0 
L 9.078125 54.6875 
L 18.109375 54.6875 
L 18.109375 46.1875 
Q 21.34375 51.125 25.703125 53.5625 
Q 30.078125 56 35.796875 56 
Q 45.21875 56 50.046875 50.171875 
Q 54.890625 44.34375 54.890625 33.015625 
z
" id="DejaVuSans-6e"/>
      <path d="M 8.015625 75.875 
L 15.828125 75.875 
Q 23.140625 64.359375 26.78125 53.3125 
Q 30.421875 42.28125 30.421875 31.390625 
Q 30.421875 20.453125 26.78125 9.375 
Q 23.140625 -1.703125 15.828125 -13.1875 
L 8.015625 -13.1875 
Q 14.5 -2 17.703125 9.0625 
Q 20.90625 20.125 20.90625 31.390625 
Q 20.90625 42.671875 17.703125 53.65625 
Q 14.5 64.65625 8.015625 75.875 
z
" id="DejaVuSans-29"/>
     </defs>
     <g transform="translate(304.3125 196.885938)scale(0.1 -0.1)">
      <use xlink:href="#DejaVuSans-6f"/>
      <use x="61.181641" xlink:href="#DejaVuSans-66"/>
      <use x="96.386719" xlink:href="#DejaVuSans-66"/>
      <use x="131.591797" xlink:href="#DejaVuSans-69"/>
      <use x="159.375" xlink:href="#DejaVuSans-63"/>
      <use x="214.355469" xlink:href="#DejaVuSans-61"/>
      <use x="275.634766" xlink:href="#DejaVuSans-6c"/>
      <use x="303.417969" xlink:href="#DejaVuSans-28"/>
      <use x="342.431641" xlink:href="#DejaVuSans-63"/>
      <use x="397.412109" xlink:href="#DejaVuSans-6f"/>
      <use x="458.59375" xlink:href="#DejaVuSans-72"/>
      <use x="499.675781" xlink:href="#DejaVuSans-65"/>
      <use x="561.199219" xlink:href="#DejaVuSans-6e"/>
      <use x="624.578125" xlink:href="#DejaVuSans-6c"/>
      <use x="652.361328" xlink:href="#DejaVuSans-70"/>
      <use x="715.837891" xlink:href="#DejaVuSans-29"/>
     </g>
    </g>
    <g id="line2d_24">
     <path d="M 276.3125 208.064063 
L 296.3125 208.064063 
" style="fill:none;opacity:0.5;stroke:#ff7f0e;stroke-linecap:square;"/>
    </g>
    <g id="line2d_25">
     <g>
      <use style="fill:#ff7f0e;opacity:0.5;stroke:#ff7f0e;" x="286.3125" xlink:href="#me15b81db33" y="208.064063"/>
     </g>
    </g>
    <g id="text_21">
     <!-- official(spacy) -->
     <defs>
      <path d="M 44.28125 53.078125 
L 44.28125 44.578125 
Q 40.484375 46.53125 36.375 47.5 
Q 32.28125 48.484375 27.875 48.484375 
Q 21.1875 48.484375 17.84375 46.4375 
Q 14.5 44.390625 14.5 40.28125 
Q 14.5 37.15625 16.890625 35.375 
Q 19.28125 33.59375 26.515625 31.984375 
L 29.59375 31.296875 
Q 39.15625 29.25 43.1875 25.515625 
Q 47.21875 21.78125 47.21875 15.09375 
Q 47.21875 7.46875 41.1875 3.015625 
Q 35.15625 -1.421875 24.609375 -1.421875 
Q 20.21875 -1.421875 15.453125 -0.5625 
Q 10.6875 0.296875 5.421875 2 
L 5.421875 11.28125 
Q 10.40625 8.6875 15.234375 7.390625 
Q 20.0625 6.109375 24.8125 6.109375 
Q 31.15625 6.109375 34.5625 8.28125 
Q 37.984375 10.453125 37.984375 14.40625 
Q 37.984375 18.0625 35.515625 20.015625 
Q 33.0625 21.96875 24.703125 23.78125 
L 21.578125 24.515625 
Q 13.234375 26.265625 9.515625 29.90625 
Q 5.8125 33.546875 5.8125 39.890625 
Q 5.8125 47.609375 11.28125 51.796875 
Q 16.75 56 26.8125 56 
Q 31.78125 56 36.171875 55.265625 
Q 40.578125 54.546875 44.28125 53.078125 
z
" id="DejaVuSans-73"/>
      <path d="M 32.171875 -5.078125 
Q 28.375 -14.84375 24.75 -17.8125 
Q 21.140625 -20.796875 15.09375 -20.796875 
L 7.90625 -20.796875 
L 7.90625 -13.28125 
L 13.1875 -13.28125 
Q 16.890625 -13.28125 18.9375 -11.515625 
Q 21 -9.765625 23.484375 -3.21875 
L 25.09375 0.875 
L 2.984375 54.6875 
L 12.5 54.6875 
L 29.59375 11.921875 
L 46.6875 54.6875 
L 56.203125 54.6875 
z
" id="DejaVuSans-79"/>
     </defs>
     <g transform="translate(304.3125 211.564063)scale(0.1 -0.1)">
      <use xlink:href="#DejaVuSans-6f"/>
      <use x="61.181641" xlink:href="#DejaVuSans-66"/>
      <use x="96.386719" xlink:href="#DejaVuSans-66"/>
      <use x="131.591797" xlink:href="#DejaVuSans-69"/>
      <use x="159.375" xlink:href="#DejaVuSans-63"/>
      <use x="214.355469" xlink:href="#DejaVuSans-69"/>
      <use x="242.138672" xlink:href="#DejaVuSans-61"/>
      <use x="303.417969" xlink:href="#DejaVuSans-6c"/>
      <use x="331.201172" xlink:href="#DejaVuSans-28"/>
      <use x="370.214844" xlink:href="#DejaVuSans-73"/>
      <use x="422.314453" xlink:href="#DejaVuSans-70"/>
      <use x="485.791016" xlink:href="#DejaVuSans-61"/>
      <use x="547.070312" xlink:href="#DejaVuSans-63"/>
      <use x="602.050781" xlink:href="#DejaVuSans-79"/>
      <use x="661.230469" xlink:href="#DejaVuSans-29"/>
     </g>
    </g>
    <g id="line2d_26">
     <path d="M 276.3125 222.742188 
L 296.3125 222.742188 
" style="fill:none;opacity:0.5;stroke:#2ca02c;stroke-linecap:square;"/>
    </g>
    <g id="line2d_27">
     <g>
      <use style="fill:#2ca02c;opacity:0.5;stroke:#2ca02c;" x="286.3125" xlink:href="#m4e22549cce" y="222.742188"/>
     </g>
    </g>
    <g id="text_22">
     <!-- this project -->
     <defs>
      <path d="M 18.3125 70.21875 
L 18.3125 54.6875 
L 36.8125 54.6875 
L 36.8125 47.703125 
L 18.3125 47.703125 
L 18.3125 18.015625 
Q 18.3125 11.328125 20.140625 9.421875 
Q 21.96875 7.515625 27.59375 7.515625 
L 36.8125 7.515625 
L 36.8125 0 
L 27.59375 0 
Q 17.1875 0 13.234375 3.875 
Q 9.28125 7.765625 9.28125 18.015625 
L 9.28125 47.703125 
L 2.6875 47.703125 
L 2.6875 54.6875 
L 9.28125 54.6875 
L 9.28125 70.21875 
z
" id="DejaVuSans-74"/>
      <path id="DejaVuSans-20"/>
      <path d="M 9.421875 54.6875 
L 18.40625 54.6875 
L 18.40625 -0.984375 
Q 18.40625 -11.421875 14.421875 -16.109375 
Q 10.453125 -20.796875 1.609375 -20.796875 
L -1.8125 -20.796875 
L -1.8125 -13.1875 
L 0.59375 -13.1875 
Q 5.71875 -13.1875 7.5625 -10.8125 
Q 9.421875 -8.453125 9.421875 -0.984375 
z
M 9.421875 75.984375 
L 18.40625 75.984375 
L 18.40625 64.59375 
L 9.421875 64.59375 
z
" id="DejaVuSans-6a"/>
     </defs>
     <g transform="translate(304.3125 226.242188)scale(0.1 -0.1)">
      <use xlink:href="#DejaVuSans-74"/>
      <use x="39.208984" xlink:href="#DejaVuSans-68"/>
      <use x="102.587891" xlink:href="#DejaVuSans-69"/>
      <use x="130.371094" xlink:href="#DejaVuSans-73"/>
      <use x="182.470703" xlink:href="#DejaVuSans-20"/>
      <use x="214.257812" xlink:href="#DejaVuSans-70"/>
      <use x="277.734375" xlink:href="#DejaVuSans-72"/>
      <use x="318.816406" xlink:href="#DejaVuSans-6f"/>
      <use x="379.998047" xlink:href="#DejaVuSans-6a"/>
      <use x="407.78125" xlink:href="#DejaVuSans-65"/>
      <use x="469.304688" xlink:href="#DejaVuSans-63"/>
      <use x="524.285156" xlink:href="#DejaVuSans-74"/>
     </g>
    </g>
    <g id="line2d_28">
     <path d="M 276.3125 237.420312 
L 296.3125 237.420312 
" style="fill:none;opacity:0.3;stroke:#d62728;stroke-linecap:square;stroke-width:2;"/>
    </g>
    <g id="line2d_29"/>
    <g id="text_23">
     <!-- paper -->
     <g transform="translate(304.3125 240.920312)scale(0.1 -0.1)">
      <use xlink:href="#DejaVuSans-70"/>
      <use x="63.476562" xlink:href="#DejaVuSans-61"/>
      <use x="124.755859" xlink:href="#DejaVuSans-70"/>
      <use x="188.232422" xlink:href="#DejaVuSans-65"/>
      <use x="249.755859" xlink:href="#DejaVuSans-72"/>
     </g>
    </g>
   </g>
  </g>
 </g>
 <defs>
  <clipPath id="pa48bb58498">
   <rect height="217.44" width="334.8" x="54" y="34.56"/>
  </clipPath>
 </defs>
</svg>
